HIERARCHY
ROOT SpineBase
{
  OFFSET 0.000000 0.000000 0.000000
  CHANNELS 6 Xposition Yposition Zposition Zrotation Xrotation Yrotation
  JOINT SpineMid
  {
    OFFSET 0.000000 33.894989 0.000000
    CHANNELS 3 Zrotation Xrotation Yrotation
    JOINT SpineShoulder
    {
      OFFSET -0.409690 24.967261 -0.797160
      CHANNELS 3 Zrotation Xrotation Yrotation
      JOINT Neck
      {
        OFFSET -0.111190 8.229894 -0.529388
        CHANNELS 3 Zrotation Xrotation Yrotation
        JOINT Head
        {
          OFFSET -7.012616 -4.557980 -1.027827
          CHANNELS 3 Zrotation Xrotation Yrotation
          End Site
          {
            OFFSET 0 0 0
          }
        }
      }
      JOINT ShoulderLeft
      {
        OFFSET -1.957767 -5.937791 -11.731293
        CHANNELS 3 Zrotation Xrotation Yrotation
        JOINT ElbowLeft
        {
          OFFSET -5.852224 -25.948896 -2.496851
          CHANNELS 3 Zrotation Xrotation Yrotation
          JOINT WristLeft
          {
            OFFSET 10.914093 -22.373529 -0.019413
            CHANNELS 3 Zrotation Xrotation Yrotation
            JOINT HandLeft
            {
              OFFSET 1.222717 -6.347347 2.734949
              CHANNELS 3 Zrotation Xrotation Yrotation
              JOINT HandTipLeft
              {
                OFFSET 5.991428 -6.336330 2.153136
                CHANNELS 3 Zrotation Xrotation Yrotation
                End Site
                {
                  OFFSET 0 0 0
                }
              }
              JOINT ThumbLeft
              {
                OFFSET 4.928790 5.474911 2.421353
                CHANNELS 3 Zrotation Xrotation Yrotation
                End Site
                {
                  OFFSET 0 0 0
                }
              }
            }
          }
        }
      }
      JOINT ShoulderRight
      {
        OFFSET 5.457113 -6.133985 -4.021214
        CHANNELS 3 Zrotation Xrotation Yrotation
        JOINT ElbowRight
        {
          OFFSET -10.456262 -23.179089 -10.083404
          CHANNELS 3 Zrotation Xrotation Yrotation
          JOINT WristRight
          {
            OFFSET -3.946451 -19.367745 -1.098451
            CHANNELS 3 Zrotation Xrotation Yrotation
            JOINT HandRight
            {
              OFFSET -0.149158 -7.408143 1.609778
              CHANNELS 3 Zrotation Xrotation Yrotation
              JOINT HandTipRight
              {
                OFFSET -1.663559 -6.767094 -0.264528
                CHANNELS 3 Zrotation Xrotation Yrotation
                End Site
                {
                  OFFSET 0 0 0
                }
              }
              JOINT ThumbRight
              {
                OFFSET 5.153747 -1.224089 -2.519132
                CHANNELS 3 Zrotation Xrotation Yrotation
                End Site
                {
                  OFFSET 0 0 0
                }
              }
            }
          }
        }
      }
    }
  }
  JOINT HipLeft
  {
    OFFSET -3.498576 1.795854 0.271971
    CHANNELS 3 Zrotation Xrotation Yrotation
    JOINT KneeLeft
    {
      OFFSET 13.086368 -36.915625 9.447341
      CHANNELS 3 Zrotation Xrotation Yrotation
      JOINT AnkleLeft
      {
        OFFSET -1.416931 -29.989986 0.261132
        CHANNELS 3 Zrotation Xrotation Yrotation
        JOINT FootLeft
        {
          OFFSET -2.881338 -8.455378 -9.897172
          CHANNELS 3 Zrotation Xrotation Yrotation
          End Site
          {
            OFFSET 0 0 0
          }
        }
      }
    }
  }
  JOINT HipRight
  {
    OFFSET 4.436548 -0.027245 -7.032229
    CHANNELS 3 Zrotation Xrotation Yrotation
    JOINT KneeRight
    {
      OFFSET 0.082639 -31.234526 1.100267
      CHANNELS 3 Zrotation Xrotation Yrotation
      JOINT AnkleRight
      {
        OFFSET 4.881062 -34.408571 4.848369
        CHANNELS 3 Zrotation Xrotation Yrotation
        JOINT FootRight
        {
          OFFSET 7.284878 -2.990752 -10.651012
          CHANNELS 3 Zrotation Xrotation Yrotation
          End Site
          {
            OFFSET 0 0 0
          }
        }
      }
    }
  }
}
MOTION
Frames: 10
Frame Time: 0.033333
-31.195925 54.878307 346.260233 3.220840 7.853582 -5.607429 -0.010005 -1.171395 5.619314 0.238391 -2.181143 0.144663 -104.949801 -28.657564 10.033199 0.000000 0.000000 0.000000 3.156759 -1.628784 -1.350050 18.016535 -1.564812 2.430563 33.286540 6.909146 22.722171 -62.181282 0.396441 -32.030045 0.000000 0.000000 0.000000 0.000000 0.000000 0.000000 -31.475713 16.427994 4.842863 33.089071 -14.363440 3.038146 2.699247 -23.798237 5.134943 -3.222237 20.865035 -2.753814 0.000000 0.000000 0.000000 0.000000 0.000000 0.000000 -32.141511 -42.867504 -28.227752 35.838185 34.842853 1.953126 9.913891 31.499718 -36.962633 0.000000 0.000000 0.000000 -11.070013 -12.372723 3.357818 18.669707 14.669616 1.421364 -15.959325 4.235101 38.874068 0.000000 0.000000 0.000000
-31.841155 54.963074 348.137693 2.105489 10.162921 -1.698476 0.102602 -1.000635 1.757485 -0.208110 -2.074179 0.022119 -101.498636 -21.710646 6.836383 0.000000 0.000000 0.000000 3.881064 -3.612650 -1.156837 24.727297 -1.956593 2.921769 55.223529 13.751499 31.140100 -81.027239 2.469422 -34.317386 0.000000 0.000000 0.000000 0.000000 0.000000 0.000000 -27.044149 16.340188 1.992394 29.876582 -12.800540 4.031531 5.223575 -30.203884 7.129464 -1.765132 25.338573 -4.074720 0.000000 0.000000 0.000000 0.000000 0.000000 0.000000 -36.191898 -41.407754 -34.474620 38.579706 36.165881 0.707681 8.051715 28.074460 -35.377298 0.000000 0.000000 0.000000 -8.719214 -12.736534 -0.269792 15.616233 13.837524 1.703355 -12.494821 18.187719 43.504214 0.000000 0.000000 0.000000
-33.496726 56.504868 350.259803 1.951836 11.625792 1.137485 -0.144218 -1.151143 -1.099284 -0.665399 -1.836081 -0.080832 -95.734648 -21.669924 5.730705 0.000000 0.000000 0.000000 5.253291 -5.205722 -0.904726 25.824841 -1.646097 3.013604 67.031215 31.207510 24.196416 -99.021165 -6.714908 -47.138422 0.000000 0.000000 0.000000 0.000000 0.000000 0.000000 -20.778751 14.452948 -0.848781 25.407263 -10.450778 4.368429 5.996082 -33.239466 8.446214 0.300614 25.783627 -5.091926 0.000000 0.000000 0.000000 0.000000 0.000000 0.000000 -39.811541 -38.101307 -37.945495 47.930136 39.433492 -4.763936 2.950014 21.054569 -34.614268 0.000000 0.000000 0.000000 -4.271328 -10.614584 -2.024934 8.614608 10.321836 2.079623 -10.315708 20.531292 44.913182 0.000000 0.000000 0.000000
-34.422400 57.042328 353.087218 4.653604 12.075571 7.108287 -0.857263 -0.789146 -7.341543 -1.080935 -1.541404 -0.065306 -98.295402 -22.081950 4.762812 0.000000 0.000000 0.000000 3.130767 -5.173948 -1.369980 27.238895 -2.459171 3.743383 68.746831 53.099250 1.755665 -113.967657 -24.607847 -75.844669 0.000000 0.000000 0.000000 0.000000 0.000000 0.000000 -19.279765 14.756138 -3.025861 23.811536 -9.619221 5.530362 6.049074 -35.852698 9.635963 4.201933 26.105450 -7.055676 0.000000 0.000000 0.000000 0.000000 0.000000 0.000000 -47.217031 -31.177285 -43.555383 55.024011 41.104506 -8.361229 -1.522243 18.095699 -32.707199 0.000000 0.000000 0.000000 -3.460462 -5.561722 -7.729585 3.536735 6.561579 2.390975 -11.403448 19.466137 49.645038 0.000000 0.000000 0.000000
-35.943388 57.811820 355.689897 7.044065 11.937179 14.853889 -1.012164 -0.578284 -15.251267 -1.033366 -1.483429 0.047883 -104.053686 -24.604787 4.918830 0.000000 0.000000 0.000000 -1.991571 -6.799140 -1.386761 29.506450 -3.933041 1.923037 62.857472 78.293154 -33.897576 -140.787907 -54.196734 -132.090551 0.000000 0.000000 0.000000 0.000000 0.000000 0.000000 -18.312944 15.876383 -5.079131 21.265372 -8.705281 6.449181 6.171009 -37.724043 10.459442 2.075665 16.416143 -2.745919 0.000000 0.000000 0.000000 0.000000 0.000000 0.000000 -48.370867 -22.971361 -45.443502 53.717258 38.779778 -7.427005 -5.077395 21.843690 -30.171208 0.000000 0.000000 0.000000 -0.616964 -1.189475 -15.281669 -2.157566 4.727416 2.207180 -13.944893 10.326052 53.961514 0.000000 0.000000 0.000000
-37.163454 57.784944 358.702190 10.119812 10.275872 22.095903 -0.920564 -0.274829 -22.565454 -0.848674 -1.311142 0.228569 -111.382894 -30.644635 6.530096 0.000000 0.000000 0.000000 -4.582064 -5.402278 -1.851877 28.142588 -3.478452 2.117554 -26.631154 82.994909 27.797698 -174.334594 -65.342269 175.287495 0.000000 0.000000 0.000000 0.000000 0.000000 0.000000 -12.721750 16.229538 -9.183322 13.336620 -6.776503 7.593962 12.288712 -37.734761 15.020204 -6.375513 12.985494 -0.433830 0.000000 0.000000 0.000000 0.000000 0.000000 0.000000 -46.970276 -13.717685 -44.802689 50.847983 35.460645 -5.811698 -10.823543 20.936972 -24.105090 0.000000 0.000000 0.000000 4.574037 7.159672 -23.454496 -6.795885 0.559867 1.845719 -19.386138 -6.629695 60.136111 0.000000 0.000000 0.000000
-37.873442 58.360195 361.392558 13.933496 9.388283 27.890251 -1.518617 -0.441642 -28.456437 -0.716656 -1.135359 0.397874 -118.500823 -37.106136 7.798112 0.000000 0.000000 0.000000 -4.613002 -2.486955 -2.780062 21.848268 -1.796916 3.983271 -32.850520 73.591745 24.550457 90.319851 -73.954463 84.569250 0.000000 0.000000 0.000000 0.000000 0.000000 0.000000 -4.713062 14.151706 -14.122043 -0.028138 -3.805747 8.127750 15.467613 -35.799489 16.319766 -5.875794 3.612357 0.966840 0.000000 0.000000 0.000000 0.000000 0.000000 0.000000 -43.954465 -4.946511 -42.870030 44.332322 27.695055 -2.018272 -27.619119 28.448407 -5.293032 0.000000 0.000000 0.000000 9.500740 14.501735 -31.704937 -9.388040 -2.724650 1.563340 -25.253879 -23.925090 65.434205 0.000000 0.000000 0.000000
-38.575862 57.625280 363.721822 16.383980 8.680301 32.548068 -1.771974 -0.183333 -33.140959 -0.597554 -1.045083 0.505012 -124.938439 -42.911470 7.777501 0.000000 0.000000 0.000000 -1.217399 0.829137 -4.186577 12.998249 0.127177 6.863975 -28.606166 65.604494 15.309945 36.797572 -55.303970 42.819808 0.000000 0.000000 0.000000 0.000000 0.000000 0.000000 5.288617 8.749936 -18.075688 -12.640686 -0.344246 9.359277 12.039514 -30.632570 14.139301 1.021339 6.806875 -3.334217 0.000000 0.000000 0.000000 0.000000 0.000000 0.000000 -39.326353 0.408733 -42.177141 36.643891 21.740776 0.098540 -59.592677 9.262332 32.932829 0.000000 0.000000 0.000000 15.942979 19.557023 -39.416677 -11.189892 -4.710493 1.338306 -31.536890 -41.054126 59.441234 0.000000 0.000000 0.000000
-38.515693 57.034655 366.027395 18.852537 7.484338 36.304547 -1.848162 0.585503 -36.892612 -0.424981 -0.873984 0.597097 -130.202205 -48.511829 7.560096 0.000000 0.000000 0.000000 4.288213 5.175823 -6.667702 1.622474 1.027929 10.309737 -20.413205 55.694026 6.323164 9.074304 -35.611703 28.969814 0.000000 0.000000 0.000000 0.000000 0.000000 0.000000 11.413091 4.285778 -20.075784 -18.748925 2.585454 10.710916 8.093931 -20.268250 12.405535 5.705701 6.445379 -7.023065 0.000000 0.000000 0.000000 0.000000 0.000000 0.000000 -34.411346 6.694782 -41.185472 30.233343 14.213531 1.470108 -54.837149 -34.561270 47.788975 0.000000 0.000000 0.000000 25.035049 25.592647 -48.470539 -11.179407 -9.471022 1.791993 -42.471875 -52.990108 51.881526 0.000000 0.000000 0.000000
-38.210550 56.513939 368.872140 20.646131 6.497979 36.158502 -2.161784 1.256922 -36.721362 -0.196567 -0.520907 0.626283 -132.845132 -52.046256 7.434954 0.000000 0.000000 0.000000 9.986436 9.304552 -9.675076 -7.920037 0.525065 13.008125 -19.010076 51.639661 1.520298 2.705512 -33.242976 25.012264 0.000000 0.000000 0.000000 0.000000 0.000000 0.000000 13.625293 2.412128 -20.929681 -17.257296 4.473282 11.608966 0.481646 -9.250069 9.513344 11.077515 4.044914 -8.328288 0.000000 0.000000 0.000000 0.000000 0.000000 0.000000 -29.072757 10.892309 -37.782751 22.206126 5.397784 1.987661 -43.391838 -49.031962 57.926742 0.000000 0.000000 0.000000 34.959248 32.071542 -55.567386 -10.199977 -16.838250 3.018926 -46.886381 -51.010018 49.969613 0.000000 0.000000 0.000000
